  0
SECTION
  2
BLOCKS
  0
ENDSEC
  0
SECTION
  2
ENTITIES
  0
LINE
  8
0
 10
1500
 20
1000
 11
0
 21
1000
  0
LINE
  8
0
 10
0
 20
1000
 11
0
 21
0
  0
LINE
  8
0
 10
0
 20
0
 11
1500
 21
0
  0
LINE
  8
0
 10
1500
 20
0
 11
1500
 21
1000
  0
LINE
  8
0
 10
82.1429
 20
909.327
 11
132.143
 21
909.327
  0
LINE
  8
0
 10
132.143
 20
909.327
 11
157.143
 21
866.025
  0
LINE
  8
0
 10
157.143
 20
866.025
 11
132.143
 21
822.724
  0
LINE
  8
0
 10
132.143
 20
822.724
 11
82.1429
 21
822.724
  0
LINE
  8
0
 10
82.1429
 20
822.724
 11
61.8589
 21
857.857
  0
LINE
  8
0
 10
61.8589
 20
857.857
 11
61.8589
 21
874.194
  0
LINE
  8
0
 10
61.8589
 20
874.194
 11
82.1429
 21
909.327
  0
LINE
  8
0
 10
189.286
 20
884.583
 11
169.414
 21
919.002
  0
LINE
  8
0
 10
169.414
 20
919.002
 11
259.157
 21
919.002
  0
LINE
  8
0
 10
259.157
 20
919.002
 11
239.286
 21
884.583
  0
LINE
  8
0
 10
239.286
 20
884.583
 11
189.286
 21
884.583
  0
LINE
  8
0
 10
403.571
 20
884.583
 11
383.7
 21
919.002
  0
LINE
  8
0
 10
383.7
 20
919.002
 11
473.443
 21
919.002
  0
LINE
  8
0
 10
473.443
 20
919.002
 11
453.571
 21
884.583
  0
LINE
  8
0
 10
453.571
 20
884.583
 11
403.571
 21
884.583
  0
LINE
  8
0
 10
617.857
 20
884.583
 11
597.985
 21
919.002
  0
LINE
  8
0
 10
597.985
 20
919.002
 11
687.729
 21
919.002
  0
LINE
  8
0
 10
687.729
 20
919.002
 11
667.857
 21
884.583
  0
LINE
  8
0
 10
667.857
 20
884.583
 11
617.857
 21
884.583
  0
LINE
  8
0
 10
832.143
 20
884.583
 11
812.271
 21
919.002
  0
LINE
  8
0
 10
812.271
 20
919.002
 11
902.015
 21
919.002
  0
LINE
  8
0
 10
902.015
 20
919.002
 11
882.143
 21
884.583
  0
LINE
  8
0
 10
882.143
 20
884.583
 11
832.143
 21
884.583
  0
LINE
  8
0
 10
1046.43
 20
884.583
 11
1026.56
 21
919.002
  0
LINE
  8
0
 10
1026.56
 20
919.002
 11
1116.3
 21
919.002
  0
LINE
  8
0
 10
1116.3
 20
919.002
 11
1096.43
 21
884.583
  0
LINE
  8
0
 10
1096.43
 20
884.583
 11
1046.43
 21
884.583
  0
LINE
  8
0
 10
1260.71
 20
884.583
 11
1240.84
 21
919.002
  0
LINE
  8
0
 10
1240.84
 20
919.002
 11
1330.59
 21
919.002
  0
LINE
  8
0
 10
1330.59
 20
919.002
 11
1310.71
 21
884.583
  0
LINE
  8
0
 10
1310.71
 20
884.583
 11
1260.71
 21
884.583
  0
LINE
  8
0
 10
1417.86
 20
822.724
 11
1367.86
 21
822.724
  0
LINE
  8
0
 10
1367.86
 20
822.724
 11
1342.86
 21
866.025
  0
LINE
  8
0
 10
1342.86
 20
866.025
 11
1367.86
 21
909.327
  0
LINE
  8
0
 10
1367.86
 20
909.327
 11
1417.86
 21
909.327
  0
LINE
  8
0
 10
1417.86
 20
909.327
 11
1438.14
 21
874.194
  0
LINE
  8
0
 10
1438.14
 20
874.194
 11
1438.14
 21
857.857
  0
LINE
  8
0
 10
1438.14
 20
857.857
 11
1417.86
 21
822.724
  0
LINE
  8
0
 10
510.714
 20
822.724
 11
485.714
 21
866.025
  0
LINE
  8
0
 10
485.714
 20
866.025
 11
510.714
 21
909.327
  0
LINE
  8
0
 10
510.714
 20
909.327
 11
560.714
 21
909.327
  0
LINE
  8
0
 10
560.714
 20
909.327
 11
585.714
 21
866.025
  0
LINE
  8
0
 10
585.714
 20
866.025
 11
560.714
 21
822.724
  0
LINE
  8
0
 10
560.714
 20
822.724
 11
510.714
 21
822.724
  0
LINE
  8
0
 10
725
 20
822.724
 11
700
 21
866.025
  0
LINE
  8
0
 10
700
 20
866.025
 11
725
 21
909.327
  0
LINE
  8
0
 10
725
 20
909.327
 11
775
 21
909.327
  0
LINE
  8
0
 10
775
 20
909.327
 11
800
 21
866.025
  0
LINE
  8
0
 10
800
 20
866.025
 11
775
 21
822.724
  0
LINE
  8
0
 10
775
 20
822.724
 11
725
 21
822.724
  0
LINE
  8
0
 10
296.429
 20
822.724
 11
271.429
 21
866.025
  0
LINE
  8
0
 10
271.429
 20
866.025
 11
296.429
 21
909.327
  0
LINE
  8
0
 10
296.429
 20
909.327
 11
346.429
 21
909.327
  0
LINE
  8
0
 10
346.429
 20
909.327
 11
371.429
 21
866.025
  0
LINE
  8
0
 10
371.429
 20
866.025
 11
346.429
 21
822.724
  0
LINE
  8
0
 10
346.429
 20
822.724
 11
296.429
 21
822.724
  0
LINE
  8
0
 10
939.286
 20
822.724
 11
914.286
 21
866.025
  0
LINE
  8
0
 10
914.286
 20
866.025
 11
939.286
 21
909.327
  0
LINE
  8
0
 10
939.286
 20
909.327
 11
989.286
 21
909.327
  0
LINE
  8
0
 10
989.286
 20
909.327
 11
1014.29
 21
866.025
  0
LINE
  8
0
 10
1014.29
 20
866.025
 11
989.286
 21
822.724
  0
LINE
  8
0
 10
989.286
 20
822.724
 11
939.286
 21
822.724
  0
LINE
  8
0
 10
1153.57
 20
822.724
 11
1128.57
 21
866.025
  0
LINE
  8
0
 10
1128.57
 20
866.025
 11
1153.57
 21
909.327
  0
LINE
  8
0
 10
1153.57
 20
909.327
 11
1203.57
 21
909.327
  0
LINE
  8
0
 10
1203.57
 20
909.327
 11
1228.57
 21
866.025
  0
LINE
  8
0
 10
1228.57
 20
866.025
 11
1203.57
 21
822.724
  0
LINE
  8
0
 10
1203.57
 20
822.724
 11
1153.57
 21
822.724
  0
LINE
  8
0
 10
403.571
 20
760.865
 11
378.571
 21
804.166
  0
LINE
  8
0
 10
378.571
 20
804.166
 11
403.571
 21
847.468
  0
LINE
  8
0
 10
403.571
 20
847.468
 11
453.571
 21
847.468
  0
LINE
  8
0
 10
453.571
 20
847.468
 11
478.571
 21
804.166
  0
LINE
  8
0
 10
478.571
 20
804.166
 11
453.571
 21
760.865
  0
LINE
  8
0
 10
453.571
 20
760.865
 11
403.571
 21
760.865
  0
LINE
  8
0
 10
617.857
 20
760.865
 11
592.857
 21
804.166
  0
LINE
  8
0
 10
592.857
 20
804.166
 11
617.857
 21
847.468
  0
LINE
  8
0
 10
617.857
 20
847.468
 11
667.857
 21
847.468
  0
LINE
  8
0
 10
667.857
 20
847.468
 11
692.857
 21
804.166
  0
LINE
  8
0
 10
692.857
 20
804.166
 11
667.857
 21
760.865
  0
LINE
  8
0
 10
667.857
 20
760.865
 11
617.857
 21
760.865
  0
LINE
  8
0
 10
832.143
 20
760.865
 11
807.143
 21
804.166
  0
LINE
  8
0
 10
807.143
 20
804.166
 11
832.143
 21
847.468
  0
LINE
  8
0
 10
832.143
 20
847.468
 11
882.143
 21
847.468
  0
LINE
  8
0
 10
882.143
 20
847.468
 11
907.143
 21
804.166
  0
LINE
  8
0
 10
907.143
 20
804.166
 11
882.143
 21
760.865
  0
LINE
  8
0
 10
882.143
 20
760.865
 11
832.143
 21
760.865
  0
LINE
  8
0
 10
189.286
 20
760.865
 11
164.286
 21
804.166
  0
LINE
  8
0
 10
164.286
 20
804.166
 11
189.286
 21
847.468
  0
LINE
  8
0
 10
189.286
 20
847.468
 11
239.286
 21
847.468
  0
LINE
  8
0
 10
239.286
 20
847.468
 11
264.286
 21
804.166
  0
LINE
  8
0
 10
264.286
 20
804.166
 11
239.286
 21
760.865
  0
LINE
  8
0
 10
239.286
 20
760.865
 11
189.286
 21
760.865
  0
LINE
  8
0
 10
1046.43
 20
760.865
 11
1021.43
 21
804.166
  0
LINE
  8
0
 10
1021.43
 20
804.166
 11
1046.43
 21
847.468
  0
LINE
  8
0
 10
1046.43
 20
847.468
 11
1096.43
 21
847.468
  0
LINE
  8
0
 10
1096.43
 20
847.468
 11
1121.43
 21
804.166
  0
LINE
  8
0
 10
1121.43
 20
804.166
 11
1096.43
 21
760.865
  0
LINE
  8
0
 10
1096.43
 20
760.865
 11
1046.43
 21
760.865
  0
LINE
  8
0
 10
1260.71
 20
760.865
 11
1235.71
 21
804.166
  0
LINE
  8
0
 10
1235.71
 20
804.166
 11
1260.71
 21
847.468
  0
LINE
  8
0
 10
1260.71
 20
847.468
 11
1310.71
 21
847.468
  0
LINE
  8
0
 10
1310.71
 20
847.468
 11
1335.71
 21
804.166
  0
LINE
  8
0
 10
1335.71
 20
804.166
 11
1310.71
 21
760.865
  0
LINE
  8
0
 10
1310.71
 20
760.865
 11
1260.71
 21
760.865
  0
LINE
  8
0
 10
939.286
 20
699.006
 11
914.286
 21
742.307
  0
LINE
  8
0
 10
914.286
 20
742.307
 11
939.286
 21
785.609
  0
LINE
  8
0
 10
939.286
 20
785.609
 11
989.286
 21
785.609
  0
LINE
  8
0
 10
989.286
 20
785.609
 11
1014.29
 21
742.307
  0
LINE
  8
0
 10
1014.29
 20
742.307
 11
989.286
 21
699.006
  0
LINE
  8
0
 10
989.286
 20
699.006
 11
939.286
 21
699.006
  0
LINE
  8
0
 10
725
 20
699.006
 11
700
 21
742.307
  0
LINE
  8
0
 10
700
 20
742.307
 11
725
 21
785.609
  0
LINE
  8
0
 10
725
 20
785.609
 11
775
 21
785.609
  0
LINE
  8
0
 10
775
 20
785.609
 11
800
 21
742.307
  0
LINE
  8
0
 10
800
 20
742.307
 11
775
 21
699.006
  0
LINE
  8
0
 10
775
 20
699.006
 11
725
 21
699.006
  0
LINE
  8
0
 10
510.714
 20
699.006
 11
485.714
 21
742.307
  0
LINE
  8
0
 10
485.714
 20
742.307
 11
510.714
 21
785.609
  0
LINE
  8
0
 10
510.714
 20
785.609
 11
560.714
 21
785.609
  0
LINE
  8
0
 10
560.714
 20
785.609
 11
585.714
 21
742.307
  0
LINE
  8
0
 10
585.714
 20
742.307
 11
560.714
 21
699.006
  0
LINE
  8
0
 10
560.714
 20
699.006
 11
510.714
 21
699.006
  0
LINE
  8
0
 10
1153.57
 20
699.006
 11
1128.57
 21
742.307
  0
LINE
  8
0
 10
1128.57
 20
742.307
 11
1153.57
 21
785.609
  0
LINE
  8
0
 10
1153.57
 20
785.609
 11
1203.57
 21
785.609
  0
LINE
  8
0
 10
1203.57
 20
785.609
 11
1228.57
 21
742.307
  0
LINE
  8
0
 10
1228.57
 20
742.307
 11
1203.57
 21
699.006
  0
LINE
  8
0
 10
1203.57
 20
699.006
 11
1153.57
 21
699.006
  0
LINE
  8
0
 10
296.429
 20
699.006
 11
271.429
 21
742.307
  0
LINE
  8
0
 10
271.429
 20
742.307
 11
296.429
 21
785.609
  0
LINE
  8
0
 10
296.429
 20
785.609
 11
346.429
 21
785.609
  0
LINE
  8
0
 10
346.429
 20
785.609
 11
371.429
 21
742.307
  0
LINE
  8
0
 10
371.429
 20
742.307
 11
346.429
 21
699.006
  0
LINE
  8
0
 10
346.429
 20
699.006
 11
296.429
 21
699.006
  0
LINE
  8
0
 10
1367.86
 20
699.006
 11
1342.86
 21
742.307
  0
LINE
  8
0
 10
1342.86
 20
742.307
 11
1367.86
 21
785.609
  0
LINE
  8
0
 10
1367.86
 20
785.609
 11
1417.86
 21
785.609
  0
LINE
  8
0
 10
1417.86
 20
785.609
 11
1438.14
 21
750.476
  0
LINE
  8
0
 10
1438.14
 20
750.476
 11
1438.14
 21
734.139
  0
LINE
  8
0
 10
1438.14
 20
734.139
 11
1417.86
 21
699.006
  0
LINE
  8
0
 10
1417.86
 20
699.006
 11
1367.86
 21
699.006
  0
LINE
  8
0
 10
1046.43
 20
637.147
 11
1021.43
 21
680.449
  0
LINE
  8
0
 10
1021.43
 20
680.449
 11
1046.43
 21
723.75
  0
LINE
  8
0
 10
1046.43
 20
723.75
 11
1096.43
 21
723.75
  0
LINE
  8
0
 10
1096.43
 20
723.75
 11
1121.43
 21
680.449
  0
LINE
  8
0
 10
1121.43
 20
680.449
 11
1096.43
 21
637.147
  0
LINE
  8
0
 10
1096.43
 20
637.147
 11
1046.43
 21
637.147
  0
LINE
  8
0
 10
403.571
 20
637.147
 11
378.571
 21
680.449
  0
LINE
  8
0
 10
378.571
 20
680.449
 11
403.571
 21
723.75
  0
LINE
  8
0
 10
403.571
 20
723.75
 11
453.571
 21
723.75
  0
LINE
  8
0
 10
453.571
 20
723.75
 11
478.571
 21
680.449
  0
LINE
  8
0
 10
478.571
 20
680.449
 11
453.571
 21
637.147
  0
LINE
  8
0
 10
453.571
 20
637.147
 11
403.571
 21
637.147
  0
LINE
  8
0
 10
617.857
 20
637.147
 11
592.857
 21
680.449
  0
LINE
  8
0
 10
592.857
 20
680.449
 11
617.857
 21
723.75
  0
LINE
  8
0
 10
617.857
 20
723.75
 11
667.857
 21
723.75
  0
LINE
  8
0
 10
667.857
 20
723.75
 11
692.857
 21
680.449
  0
LINE
  8
0
 10
692.857
 20
680.449
 11
667.857
 21
637.147
  0
LINE
  8
0
 10
667.857
 20
637.147
 11
617.857
 21
637.147
  0
LINE
  8
0
 10
189.286
 20
637.147
 11
164.286
 21
680.449
  0
LINE
  8
0
 10
164.286
 20
680.449
 11
189.286
 21
723.75
  0
LINE
  8
0
 10
189.286
 20
723.75
 11
239.286
 21
723.75
  0
LINE
  8
0
 10
239.286
 20
723.75
 11
264.286
 21
680.449
  0
LINE
  8
0
 10
264.286
 20
680.449
 11
239.286
 21
637.147
  0
LINE
  8
0
 10
239.286
 20
637.147
 11
189.286
 21
637.147
  0
LINE
  8
0
 10
832.143
 20
637.147
 11
807.143
 21
680.449
  0
LINE
  8
0
 10
807.143
 20
680.449
 11
832.143
 21
723.75
  0
LINE
  8
0
 10
832.143
 20
723.75
 11
882.143
 21
723.75
  0
LINE
  8
0
 10
882.143
 20
723.75
 11
907.143
 21
680.449
  0
LINE
  8
0
 10
907.143
 20
680.449
 11
882.143
 21
637.147
  0
LINE
  8
0
 10
882.143
 20
637.147
 11
832.143
 21
637.147
  0
LINE
  8
0
 10
1260.71
 20
637.147
 11
1235.71
 21
680.449
  0
LINE
  8
0
 10
1235.71
 20
680.449
 11
1260.71
 21
723.75
  0
LINE
  8
0
 10
1260.71
 20
723.75
 11
1310.71
 21
723.75
  0
LINE
  8
0
 10
1310.71
 20
723.75
 11
1335.71
 21
680.449
  0
LINE
  8
0
 10
1335.71
 20
680.449
 11
1310.71
 21
637.147
  0
LINE
  8
0
 10
1310.71
 20
637.147
 11
1260.71
 21
637.147
  0
LINE
  8
0
 10
296.429
 20
575.288
 11
271.429
 21
618.59
  0
LINE
  8
0
 10
271.429
 20
618.59
 11
296.429
 21
661.891
  0
LINE
  8
0
 10
296.429
 20
661.891
 11
346.429
 21
661.891
  0
LINE
  8
0
 10
346.429
 20
661.891
 11
371.429
 21
618.59
  0
LINE
  8
0
 10
371.429
 20
618.59
 11
346.429
 21
575.288
  0
LINE
  8
0
 10
346.429
 20
575.288
 11
296.429
 21
575.288
  0
LINE
  8
0
 10
725
 20
575.288
 11
700
 21
618.59
  0
LINE
  8
0
 10
700
 20
618.59
 11
725
 21
661.891
  0
LINE
  8
0
 10
725
 20
661.891
 11
775
 21
661.891
  0
LINE
  8
0
 10
775
 20
661.891
 11
800
 21
618.59
  0
LINE
  8
0
 10
800
 20
618.59
 11
775
 21
575.288
  0
LINE
  8
0
 10
775
 20
575.288
 11
725
 21
575.288
  0
LINE
  8
0
 10
1367.86
 20
575.288
 11
1342.86
 21
618.59
  0
LINE
  8
0
 10
1342.86
 20
618.59
 11
1367.86
 21
661.891
  0
LINE
  8
0
 10
1367.86
 20
661.891
 11
1417.86
 21
661.891
  0
LINE
  8
0
 10
1417.86
 20
661.891
 11
1438.14
 21
626.758
  0
LINE
  8
0
 10
1438.14
 20
626.758
 11
1438.14
 21
610.421
  0
LINE
  8
0
 10
1438.14
 20
610.421
 11
1417.86
 21
575.288
  0
LINE
  8
0
 10
1417.86
 20
575.288
 11
1367.86
 21
575.288
  0
LINE
  8
0
 10
1153.57
 20
575.288
 11
1128.57
 21
618.59
  0
LINE
  8
0
 10
1128.57
 20
618.59
 11
1153.57
 21
661.891
  0
LINE
  8
0
 10
1153.57
 20
661.891
 11
1203.57
 21
661.891
  0
LINE
  8
0
 10
1203.57
 20
661.891
 11
1228.57
 21
618.59
  0
LINE
  8
0
 10
1228.57
 20
618.59
 11
1203.57
 21
575.288
  0
LINE
  8
0
 10
1203.57
 20
575.288
 11
1153.57
 21
575.288
  0
LINE
  8
0
 10
510.714
 20
575.288
 11
485.714
 21
618.59
  0
LINE
  8
0
 10
485.714
 20
618.59
 11
510.714
 21
661.891
  0
LINE
  8
0
 10
510.714
 20
661.891
 11
560.714
 21
661.891
  0
LINE
  8
0
 10
560.714
 20
661.891
 11
585.714
 21
618.59
  0
LINE
  8
0
 10
585.714
 20
618.59
 11
560.714
 21
575.288
  0
LINE
  8
0
 10
560.714
 20
575.288
 11
510.714
 21
575.288
  0
LINE
  8
0
 10
939.286
 20
575.288
 11
914.286
 21
618.59
  0
LINE
  8
0
 10
914.286
 20
618.59
 11
939.286
 21
661.891
  0
LINE
  8
0
 10
939.286
 20
661.891
 11
989.286
 21
661.891
  0
LINE
  8
0
 10
989.286
 20
661.891
 11
1014.29
 21
618.59
  0
LINE
  8
0
 10
1014.29
 20
618.59
 11
989.286
 21
575.288
  0
LINE
  8
0
 10
989.286
 20
575.288
 11
939.286
 21
575.288
  0
LINE
  8
0
 10
1260.71
 20
513.429
 11
1235.71
 21
556.731
  0
LINE
  8
0
 10
1235.71
 20
556.731
 11
1260.71
 21
600.032
  0
LINE
  8
0
 10
1260.71
 20
600.032
 11
1310.71
 21
600.032
  0
LINE
  8
0
 10
1310.71
 20
600.032
 11
1335.71
 21
556.731
  0
LINE
  8
0
 10
1335.71
 20
556.731
 11
1310.71
 21
513.429
  0
LINE
  8
0
 10
1310.71
 20
513.429
 11
1260.71
 21
513.429
  0
LINE
  8
0
 10
1046.43
 20
513.429
 11
1021.43
 21
556.731
  0
LINE
  8
0
 10
1021.43
 20
556.731
 11
1046.43
 21
600.032
  0
LINE
  8
0
 10
1046.43
 20
600.032
 11
1096.43
 21
600.032
  0
LINE
  8
0
 10
1096.43
 20
600.032
 11
1121.43
 21
556.731
  0
LINE
  8
0
 10
1121.43
 20
556.731
 11
1096.43
 21
513.429
  0
LINE
  8
0
 10
1096.43
 20
513.429
 11
1046.43
 21
513.429
  0
LINE
  8
0
 10
617.857
 20
513.429
 11
592.857
 21
556.731
  0
LINE
  8
0
 10
592.857
 20
556.731
 11
617.857
 21
600.032
  0
LINE
  8
0
 10
617.857
 20
600.032
 11
667.857
 21
600.032
  0
LINE
  8
0
 10
667.857
 20
600.032
 11
692.857
 21
556.731
  0
LINE
  8
0
 10
692.857
 20
556.731
 11
667.857
 21
513.429
  0
LINE
  8
0
 10
667.857
 20
513.429
 11
617.857
 21
513.429
  0
LINE
  8
0
 10
403.571
 20
513.429
 11
378.571
 21
556.731
  0
LINE
  8
0
 10
378.571
 20
556.731
 11
403.571
 21
600.032
  0
LINE
  8
0
 10
403.571
 20
600.032
 11
453.571
 21
600.032
  0
LINE
  8
0
 10
453.571
 20
600.032
 11
478.571
 21
556.731
  0
LINE
  8
0
 10
478.571
 20
556.731
 11
453.571
 21
513.429
  0
LINE
  8
0
 10
453.571
 20
513.429
 11
403.571
 21
513.429
  0
LINE
  8
0
 10
189.286
 20
513.429
 11
164.286
 21
556.731
  0
LINE
  8
0
 10
164.286
 20
556.731
 11
189.286
 21
600.032
  0
LINE
  8
0
 10
189.286
 20
600.032
 11
239.286
 21
600.032
  0
LINE
  8
0
 10
239.286
 20
600.032
 11
264.286
 21
556.731
  0
LINE
  8
0
 10
264.286
 20
556.731
 11
239.286
 21
513.429
  0
LINE
  8
0
 10
239.286
 20
513.429
 11
189.286
 21
513.429
  0
LINE
  8
0
 10
832.143
 20
513.429
 11
807.143
 21
556.731
  0
LINE
  8
0
 10
807.143
 20
556.731
 11
832.143
 21
600.032
  0
LINE
  8
0
 10
832.143
 20
600.032
 11
882.143
 21
600.032
  0
LINE
  8
0
 10
882.143
 20
600.032
 11
907.143
 21
556.731
  0
LINE
  8
0
 10
907.143
 20
556.731
 11
882.143
 21
513.429
  0
LINE
  8
0
 10
882.143
 20
513.429
 11
832.143
 21
513.429
  0
LINE
  8
0
 10
939.286
 20
451.57
 11
914.286
 21
494.872
  0
LINE
  8
0
 10
914.286
 20
494.872
 11
939.286
 21
538.173
  0
LINE
  8
0
 10
939.286
 20
538.173
 11
989.286
 21
538.173
  0
LINE
  8
0
 10
989.286
 20
538.173
 11
1014.29
 21
494.872
  0
LINE
  8
0
 10
1014.29
 20
494.872
 11
989.286
 21
451.57
  0
LINE
  8
0
 10
989.286
 20
451.57
 11
939.286
 21
451.57
  0
LINE
  8
0
 10
510.714
 20
451.57
 11
485.714
 21
494.872
  0
LINE
  8
0
 10
485.714
 20
494.872
 11
510.714
 21
538.173
  0
LINE
  8
0
 10
510.714
 20
538.173
 11
560.714
 21
538.173
  0
LINE
  8
0
 10
560.714
 20
538.173
 11
585.714
 21
494.872
  0
LINE
  8
0
 10
585.714
 20
494.872
 11
560.714
 21
451.57
  0
LINE
  8
0
 10
560.714
 20
451.57
 11
510.714
 21
451.57
  0
LINE
  8
0
 10
296.429
 20
451.57
 11
271.429
 21
494.872
  0
LINE
  8
0
 10
271.429
 20
494.872
 11
296.429
 21
538.173
  0
LINE
  8
0
 10
296.429
 20
538.173
 11
346.429
 21
538.173
  0
LINE
  8
0
 10
346.429
 20
538.173
 11
371.429
 21
494.872
  0
LINE
  8
0
 10
371.429
 20
494.872
 11
346.429
 21
451.57
  0
LINE
  8
0
 10
346.429
 20
451.57
 11
296.429
 21
451.57
  0
LINE
  8
0
 10
725
 20
451.57
 11
700
 21
494.872
  0
LINE
  8
0
 10
700
 20
494.872
 11
725
 21
538.173
  0
LINE
  8
0
 10
725
 20
538.173
 11
775
 21
538.173
  0
LINE
  8
0
 10
775
 20
538.173
 11
800
 21
494.872
  0
LINE
  8
0
 10
800
 20
494.872
 11
775
 21
451.57
  0
LINE
  8
0
 10
775
 20
451.57
 11
725
 21
451.57
  0
LINE
  8
0
 10
1153.57
 20
451.57
 11
1128.57
 21
494.872
  0
LINE
  8
0
 10
1128.57
 20
494.872
 11
1153.57
 21
538.173
  0
LINE
  8
0
 10
1153.57
 20
538.173
 11
1203.57
 21
538.173
  0
LINE
  8
0
 10
1203.57
 20
538.173
 11
1228.57
 21
494.872
  0
LINE
  8
0
 10
1228.57
 20
494.872
 11
1203.57
 21
451.57
  0
LINE
  8
0
 10
1203.57
 20
451.57
 11
1153.57
 21
451.57
  0
LINE
  8
0
 10
1367.86
 20
451.57
 11
1342.86
 21
494.872
  0
LINE
  8
0
 10
1342.86
 20
494.872
 11
1367.86
 21
538.173
  0
LINE
  8
0
 10
1367.86
 20
538.173
 11
1417.86
 21
538.173
  0
LINE
  8
0
 10
1417.86
 20
538.173
 11
1438.14
 21
503.04
  0
LINE
  8
0
 10
1438.14
 20
503.04
 11
1438.14
 21
486.703
  0
LINE
  8
0
 10
1438.14
 20
486.703
 11
1417.86
 21
451.57
  0
LINE
  8
0
 10
1417.86
 20
451.57
 11
1367.86
 21
451.57
  0
LINE
  8
0
 10
617.857
 20
389.711
 11
592.857
 21
433.013
  0
LINE
  8
0
 10
592.857
 20
433.013
 11
617.857
 21
476.314
  0
LINE
  8
0
 10
617.857
 20
476.314
 11
667.857
 21
476.314
  0
LINE
  8
0
 10
667.857
 20
476.314
 11
692.857
 21
433.013
  0
LINE
  8
0
 10
692.857
 20
433.013
 11
667.857
 21
389.711
  0
LINE
  8
0
 10
667.857
 20
389.711
 11
617.857
 21
389.711
  0
LINE
  8
0
 10
403.571
 20
389.711
 11
378.571
 21
433.013
  0
LINE
  8
0
 10
378.571
 20
433.013
 11
403.571
 21
476.314
  0
LINE
  8
0
 10
403.571
 20
476.314
 11
453.571
 21
476.314
  0
LINE
  8
0
 10
453.571
 20
476.314
 11
478.571
 21
433.013
  0
LINE
  8
0
 10
478.571
 20
433.013
 11
453.571
 21
389.711
  0
LINE
  8
0
 10
453.571
 20
389.711
 11
403.571
 21
389.711
  0
LINE
  8
0
 10
832.143
 20
389.711
 11
807.143
 21
433.013
  0
LINE
  8
0
 10
807.143
 20
433.013
 11
832.143
 21
476.314
  0
LINE
  8
0
 10
832.143
 20
476.314
 11
882.143
 21
476.314
  0
LINE
  8
0
 10
882.143
 20
476.314
 11
907.143
 21
433.013
  0
LINE
  8
0
 10
907.143
 20
433.013
 11
882.143
 21
389.711
  0
LINE
  8
0
 10
882.143
 20
389.711
 11
832.143
 21
389.711
  0
LINE
  8
0
 10
1260.71
 20
389.711
 11
1235.71
 21
433.013
  0
LINE
  8
0
 10
1235.71
 20
433.013
 11
1260.71
 21
476.314
  0
LINE
  8
0
 10
1260.71
 20
476.314
 11
1310.71
 21
476.314
  0
LINE
  8
0
 10
1310.71
 20
476.314
 11
1335.71
 21
433.013
  0
LINE
  8
0
 10
1335.71
 20
433.013
 11
1310.71
 21
389.711
  0
LINE
  8
0
 10
1310.71
 20
389.711
 11
1260.71
 21
389.711
  0
LINE
  8
0
 10
189.286
 20
389.711
 11
164.286
 21
433.013
  0
LINE
  8
0
 10
164.286
 20
433.013
 11
189.286
 21
476.314
  0
LINE
  8
0
 10
189.286
 20
476.314
 11
239.286
 21
476.314
  0
LINE
  8
0
 10
239.286
 20
476.314
 11
264.286
 21
433.013
  0
LINE
  8
0
 10
264.286
 20
433.013
 11
239.286
 21
389.711
  0
LINE
  8
0
 10
239.286
 20
389.711
 11
189.286
 21
389.711
  0
LINE
  8
0
 10
1046.43
 20
389.711
 11
1021.43
 21
433.013
  0
LINE
  8
0
 10
1021.43
 20
433.013
 11
1046.43
 21
476.314
  0
LINE
  8
0
 10
1046.43
 20
476.314
 11
1096.43
 21
476.314
  0
LINE
  8
0
 10
1096.43
 20
476.314
 11
1121.43
 21
433.013
  0
LINE
  8
0
 10
1121.43
 20
433.013
 11
1096.43
 21
389.711
  0
LINE
  8
0
 10
1096.43
 20
389.711
 11
1046.43
 21
389.711
  0
LINE
  8
0
 10
939.286
 20
327.852
 11
914.286
 21
371.154
  0
LINE
  8
0
 10
914.286
 20
371.154
 11
939.286
 21
414.455
  0
LINE
  8
0
 10
939.286
 20
414.455
 11
989.286
 21
414.455
  0
LINE
  8
0
 10
989.286
 20
414.455
 11
1014.29
 21
371.154
  0
LINE
  8
0
 10
1014.29
 20
371.154
 11
989.286
 21
327.852
  0
LINE
  8
0
 10
989.286
 20
327.852
 11
939.286
 21
327.852
  0
LINE
  8
0
 10
725
 20
327.852
 11
700
 21
371.154
  0
LINE
  8
0
 10
700
 20
371.154
 11
725
 21
414.455
  0
LINE
  8
0
 10
725
 20
414.455
 11
775
 21
414.455
  0
LINE
  8
0
 10
775
 20
414.455
 11
800
 21
371.154
  0
LINE
  8
0
 10
800
 20
371.154
 11
775
 21
327.852
  0
LINE
  8
0
 10
775
 20
327.852
 11
725
 21
327.852
  0
LINE
  8
0
 10
1153.57
 20
327.852
 11
1128.57
 21
371.154
  0
LINE
  8
0
 10
1128.57
 20
371.154
 11
1153.57
 21
414.455
  0
LINE
  8
0
 10
1153.57
 20
414.455
 11
1203.57
 21
414.455
  0
LINE
  8
0
 10
1203.57
 20
414.455
 11
1228.57
 21
371.154
  0
LINE
  8
0
 10
1228.57
 20
371.154
 11
1203.57
 21
327.852
  0
LINE
  8
0
 10
1203.57
 20
327.852
 11
1153.57
 21
327.852
  0
LINE
  8
0
 10
1367.86
 20
327.852
 11
1342.86
 21
371.154
  0
LINE
  8
0
 10
1342.86
 20
371.154
 11
1367.86
 21
414.455
  0
LINE
  8
0
 10
1367.86
 20
414.455
 11
1417.86
 21
414.455
  0
LINE
  8
0
 10
1417.86
 20
414.455
 11
1438.14
 21
379.322
  0
LINE
  8
0
 10
1438.14
 20
379.322
 11
1438.14
 21
362.985
  0
LINE
  8
0
 10
1438.14
 20
362.985
 11
1417.86
 21
327.852
  0
LINE
  8
0
 10
1417.86
 20
327.852
 11
1367.86
 21
327.852
  0
LINE
  8
0
 10
296.429
 20
327.852
 11
271.429
 21
371.154
  0
LINE
  8
0
 10
271.429
 20
371.154
 11
296.429
 21
414.455
  0
LINE
  8
0
 10
296.429
 20
414.455
 11
346.429
 21
414.455
  0
LINE
  8
0
 10
346.429
 20
414.455
 11
371.429
 21
371.154
  0
LINE
  8
0
 10
371.429
 20
371.154
 11
346.429
 21
327.852
  0
LINE
  8
0
 10
346.429
 20
327.852
 11
296.429
 21
327.852
  0
LINE
  8
0
 10
510.714
 20
327.852
 11
485.714
 21
371.154
  0
LINE
  8
0
 10
485.714
 20
371.154
 11
510.714
 21
414.455
  0
LINE
  8
0
 10
510.714
 20
414.455
 11
560.714
 21
414.455
  0
LINE
  8
0
 10
560.714
 20
414.455
 11
585.714
 21
371.154
  0
LINE
  8
0
 10
585.714
 20
371.154
 11
560.714
 21
327.852
  0
LINE
  8
0
 10
560.714
 20
327.852
 11
510.714
 21
327.852
  0
LINE
  8
0
 10
832.143
 20
265.994
 11
807.143
 21
309.295
  0
LINE
  8
0
 10
807.143
 20
309.295
 11
832.143
 21
352.596
  0
LINE
  8
0
 10
832.143
 20
352.596
 11
882.143
 21
352.596
  0
LINE
  8
0
 10
882.143
 20
352.596
 11
907.143
 21
309.295
  0
LINE
  8
0
 10
907.143
 20
309.295
 11
882.143
 21
265.994
  0
LINE
  8
0
 10
882.143
 20
265.994
 11
832.143
 21
265.994
  0
LINE
  8
0
 10
617.857
 20
265.994
 11
592.857
 21
309.295
  0
LINE
  8
0
 10
592.857
 20
309.295
 11
617.857
 21
352.596
  0
LINE
  8
0
 10
617.857
 20
352.596
 11
667.857
 21
352.596
  0
LINE
  8
0
 10
667.857
 20
352.596
 11
692.857
 21
309.295
  0
LINE
  8
0
 10
692.857
 20
309.295
 11
667.857
 21
265.994
  0
LINE
  8
0
 10
667.857
 20
265.994
 11
617.857
 21
265.994
  0
LINE
  8
0
 10
1260.71
 20
265.994
 11
1235.71
 21
309.295
  0
LINE
  8
0
 10
1235.71
 20
309.295
 11
1260.71
 21
352.596
  0
LINE
  8
0
 10
1260.71
 20
352.596
 11
1310.71
 21
352.596
  0
LINE
  8
0
 10
1310.71
 20
352.596
 11
1335.71
 21
309.295
  0
LINE
  8
0
 10
1335.71
 20
309.295
 11
1310.71
 21
265.994
  0
LINE
  8
0
 10
1310.71
 20
265.994
 11
1260.71
 21
265.994
  0
LINE
  8
0
 10
189.286
 20
265.994
 11
164.286
 21
309.295
  0
LINE
  8
0
 10
164.286
 20
309.295
 11
189.286
 21
352.596
  0
LINE
  8
0
 10
189.286
 20
352.596
 11
239.286
 21
352.596
  0
LINE
  8
0
 10
239.286
 20
352.596
 11
264.286
 21
309.295
  0
LINE
  8
0
 10
264.286
 20
309.295
 11
239.286
 21
265.994
  0
LINE
  8
0
 10
239.286
 20
265.994
 11
189.286
 21
265.994
  0
LINE
  8
0
 10
403.571
 20
265.994
 11
378.571
 21
309.295
  0
LINE
  8
0
 10
378.571
 20
309.295
 11
403.571
 21
352.596
  0
LINE
  8
0
 10
403.571
 20
352.596
 11
453.571
 21
352.596
  0
LINE
  8
0
 10
453.571
 20
352.596
 11
478.571
 21
309.295
  0
LINE
  8
0
 10
478.571
 20
309.295
 11
453.571
 21
265.994
  0
LINE
  8
0
 10
453.571
 20
265.994
 11
403.571
 21
265.994
  0
LINE
  8
0
 10
1046.43
 20
265.994
 11
1021.43
 21
309.295
  0
LINE
  8
0
 10
1021.43
 20
309.295
 11
1046.43
 21
352.596
  0
LINE
  8
0
 10
1046.43
 20
352.596
 11
1096.43
 21
352.596
  0
LINE
  8
0
 10
1096.43
 20
352.596
 11
1121.43
 21
309.295
  0
LINE
  8
0
 10
1121.43
 20
309.295
 11
1096.43
 21
265.994
  0
LINE
  8
0
 10
1096.43
 20
265.994
 11
1046.43
 21
265.994
  0
LINE
  8
0
 10
510.714
 20
204.135
 11
485.714
 21
247.436
  0
LINE
  8
0
 10
485.714
 20
247.436
 11
510.714
 21
290.737
  0
LINE
  8
0
 10
510.714
 20
290.737
 11
560.714
 21
290.737
  0
LINE
  8
0
 10
560.714
 20
290.737
 11
585.714
 21
247.436
  0
LINE
  8
0
 10
585.714
 20
247.436
 11
560.714
 21
204.135
  0
LINE
  8
0
 10
560.714
 20
204.135
 11
510.714
 21
204.135
  0
LINE
  8
0
 10
296.429
 20
204.135
 11
271.429
 21
247.436
  0
LINE
  8
0
 10
271.429
 20
247.436
 11
296.429
 21
290.737
  0
LINE
  8
0
 10
296.429
 20
290.737
 11
346.429
 21
290.737
  0
LINE
  8
0
 10
346.429
 20
290.737
 11
371.429
 21
247.436
  0
LINE
  8
0
 10
371.429
 20
247.436
 11
346.429
 21
204.135
  0
LINE
  8
0
 10
346.429
 20
204.135
 11
296.429
 21
204.135
  0
LINE
  8
0
 10
725
 20
204.135
 11
700
 21
247.436
  0
LINE
  8
0
 10
700
 20
247.436
 11
725
 21
290.737
  0
LINE
  8
0
 10
725
 20
290.737
 11
775
 21
290.737
  0
LINE
  8
0
 10
775
 20
290.737
 11
800
 21
247.436
  0
LINE
  8
0
 10
800
 20
247.436
 11
775
 21
204.135
  0
LINE
  8
0
 10
775
 20
204.135
 11
725
 21
204.135
  0
LINE
  8
0
 10
1153.57
 20
204.135
 11
1128.57
 21
247.436
  0
LINE
  8
0
 10
1128.57
 20
247.436
 11
1153.57
 21
290.737
  0
LINE
  8
0
 10
1153.57
 20
290.737
 11
1203.57
 21
290.737
  0
LINE
  8
0
 10
1203.57
 20
290.737
 11
1228.57
 21
247.436
  0
LINE
  8
0
 10
1228.57
 20
247.436
 11
1203.57
 21
204.135
  0
LINE
  8
0
 10
1203.57
 20
204.135
 11
1153.57
 21
204.135
  0
LINE
  8
0
 10
1367.86
 20
204.135
 11
1342.86
 21
247.436
  0
LINE
  8
0
 10
1342.86
 20
247.436
 11
1367.86
 21
290.737
  0
LINE
  8
0
 10
1367.86
 20
290.737
 11
1417.86
 21
290.737
  0
LINE
  8
0
 10
1417.86
 20
290.737
 11
1438.14
 21
255.604
  0
LINE
  8
0
 10
1438.14
 20
255.604
 11
1438.14
 21
239.267
  0
LINE
  8
0
 10
1438.14
 20
239.267
 11
1417.86
 21
204.135
  0
LINE
  8
0
 10
1417.86
 20
204.135
 11
1367.86
 21
204.135
  0
LINE
  8
0
 10
939.286
 20
204.135
 11
914.286
 21
247.436
  0
LINE
  8
0
 10
914.286
 20
247.436
 11
939.286
 21
290.737
  0
LINE
  8
0
 10
939.286
 20
290.737
 11
989.286
 21
290.737
  0
LINE
  8
0
 10
989.286
 20
290.737
 11
1014.29
 21
247.436
  0
LINE
  8
0
 10
1014.29
 20
247.436
 11
989.286
 21
204.135
  0
LINE
  8
0
 10
989.286
 20
204.135
 11
939.286
 21
204.135
  0
LINE
  8
0
 10
1260.71
 20
142.276
 11
1235.71
 21
185.577
  0
LINE
  8
0
 10
1235.71
 20
185.577
 11
1260.71
 21
228.878
  0
LINE
  8
0
 10
1260.71
 20
228.878
 11
1310.71
 21
228.878
  0
LINE
  8
0
 10
1310.71
 20
228.878
 11
1335.71
 21
185.577
  0
LINE
  8
0
 10
1335.71
 20
185.577
 11
1310.71
 21
142.276
  0
LINE
  8
0
 10
1310.71
 20
142.276
 11
1260.71
 21
142.276
  0
LINE
  8
0
 10
189.286
 20
142.276
 11
164.286
 21
185.577
  0
LINE
  8
0
 10
164.286
 20
185.577
 11
189.286
 21
228.878
  0
LINE
  8
0
 10
189.286
 20
228.878
 11
239.286
 21
228.878
  0
LINE
  8
0
 10
239.286
 20
228.878
 11
264.286
 21
185.577
  0
LINE
  8
0
 10
264.286
 20
185.577
 11
239.286
 21
142.276
  0
LINE
  8
0
 10
239.286
 20
142.276
 11
189.286
 21
142.276
  0
LINE
  8
0
 10
617.857
 20
142.276
 11
592.857
 21
185.577
  0
LINE
  8
0
 10
592.857
 20
185.577
 11
617.857
 21
228.878
  0
LINE
  8
0
 10
617.857
 20
228.878
 11
667.857
 21
228.878
  0
LINE
  8
0
 10
667.857
 20
228.878
 11
692.857
 21
185.577
  0
LINE
  8
0
 10
692.857
 20
185.577
 11
667.857
 21
142.276
  0
LINE
  8
0
 10
667.857
 20
142.276
 11
617.857
 21
142.276
  0
LINE
  8
0
 10
832.143
 20
142.276
 11
807.143
 21
185.577
  0
LINE
  8
0
 10
807.143
 20
185.577
 11
832.143
 21
228.878
  0
LINE
  8
0
 10
832.143
 20
228.878
 11
882.143
 21
228.878
  0
LINE
  8
0
 10
882.143
 20
228.878
 11
907.143
 21
185.577
  0
LINE
  8
0
 10
907.143
 20
185.577
 11
882.143
 21
142.276
  0
LINE
  8
0
 10
882.143
 20
142.276
 11
832.143
 21
142.276
  0
LINE
  8
0
 10
1046.43
 20
142.276
 11
1021.43
 21
185.577
  0
LINE
  8
0
 10
1021.43
 20
185.577
 11
1046.43
 21
228.878
  0
LINE
  8
0
 10
1046.43
 20
228.878
 11
1096.43
 21
228.878
  0
LINE
  8
0
 10
1096.43
 20
228.878
 11
1121.43
 21
185.577
  0
LINE
  8
0
 10
1121.43
 20
185.577
 11
1096.43
 21
142.276
  0
LINE
  8
0
 10
1096.43
 20
142.276
 11
1046.43
 21
142.276
  0
LINE
  8
0
 10
403.571
 20
142.276
 11
378.571
 21
185.577
  0
LINE
  8
0
 10
378.571
 20
185.577
 11
403.571
 21
228.878
  0
LINE
  8
0
 10
403.571
 20
228.878
 11
453.571
 21
228.878
  0
LINE
  8
0
 10
453.571
 20
228.878
 11
478.571
 21
185.577
  0
LINE
  8
0
 10
478.571
 20
185.577
 11
453.571
 21
142.276
  0
LINE
  8
0
 10
453.571
 20
142.276
 11
403.571
 21
142.276
  0
LINE
  8
0
 10
296.429
 20
80.4166
 11
271.429
 21
123.718
  0
LINE
  8
0
 10
271.429
 20
123.718
 11
296.429
 21
167.019
  0
LINE
  8
0
 10
296.429
 20
167.019
 11
346.429
 21
167.019
  0
LINE
  8
0
 10
346.429
 20
167.019
 11
371.429
 21
123.718
  0
LINE
  8
0
 10
371.429
 20
123.718
 11
346.429
 21
80.4166
  0
LINE
  8
0
 10
346.429
 20
80.4166
 11
296.429
 21
80.4166
  0
LINE
  8
0
 10
939.286
 20
80.4166
 11
914.286
 21
123.718
  0
LINE
  8
0
 10
914.286
 20
123.718
 11
939.286
 21
167.019
  0
LINE
  8
0
 10
939.286
 20
167.019
 11
989.286
 21
167.019
  0
LINE
  8
0
 10
989.286
 20
167.019
 11
1014.29
 21
123.718
  0
LINE
  8
0
 10
1014.29
 20
123.718
 11
989.286
 21
80.4166
  0
LINE
  8
0
 10
989.286
 20
80.4166
 11
939.286
 21
80.4166
  0
LINE
  8
0
 10
1153.57
 20
80.4166
 11
1128.57
 21
123.718
  0
LINE
  8
0
 10
1128.57
 20
123.718
 11
1153.57
 21
167.019
  0
LINE
  8
0
 10
1153.57
 20
167.019
 11
1203.57
 21
167.019
  0
LINE
  8
0
 10
1203.57
 20
167.019
 11
1228.57
 21
123.718
  0
LINE
  8
0
 10
1228.57
 20
123.718
 11
1203.57
 21
80.4166
  0
LINE
  8
0
 10
1203.57
 20
80.4166
 11
1153.57
 21
80.4166
  0
LINE
  8
0
 10
510.714
 20
80.4166
 11
485.714
 21
123.718
  0
LINE
  8
0
 10
485.714
 20
123.718
 11
510.714
 21
167.019
  0
LINE
  8
0
 10
510.714
 20
167.019
 11
560.714
 21
167.019
  0
LINE
  8
0
 10
560.714
 20
167.019
 11
585.714
 21
123.718
  0
LINE
  8
0
 10
585.714
 20
123.718
 11
560.714
 21
80.4166
  0
LINE
  8
0
 10
560.714
 20
80.4166
 11
510.714
 21
80.4166
  0
LINE
  8
0
 10
725
 20
80.4166
 11
700
 21
123.718
  0
LINE
  8
0
 10
700
 20
123.718
 11
725
 21
167.019
  0
LINE
  8
0
 10
725
 20
167.019
 11
775
 21
167.019
  0
LINE
  8
0
 10
775
 20
167.019
 11
800
 21
123.718
  0
LINE
  8
0
 10
800
 20
123.718
 11
775
 21
80.4166
  0
LINE
  8
0
 10
775
 20
80.4166
 11
725
 21
80.4166
  0
LINE
  8
0
 10
1367.86
 20
80.4166
 11
1342.86
 21
123.718
  0
LINE
  8
0
 10
1342.86
 20
123.718
 11
1367.86
 21
167.019
  0
LINE
  8
0
 10
1367.86
 20
167.019
 11
1417.86
 21
167.019
  0
LINE
  8
0
 10
1417.86
 20
167.019
 11
1438.14
 21
131.886
  0
LINE
  8
0
 10
1438.14
 20
131.886
 11
1438.14
 21
115.549
  0
LINE
  8
0
 10
1438.14
 20
115.549
 11
1417.86
 21
80.4166
  0
LINE
  8
0
 10
1417.86
 20
80.4166
 11
1367.86
 21
80.4166
  0
LINE
  8
0
 10
82.1429
 20
785.609
 11
132.143
 21
785.609
  0
LINE
  8
0
 10
132.143
 20
785.609
 11
157.143
 21
742.307
  0
LINE
  8
0
 10
157.143
 20
742.307
 11
132.143
 21
699.006
  0
LINE
  8
0
 10
132.143
 20
699.006
 11
82.1429
 21
699.006
  0
LINE
  8
0
 10
82.1429
 20
699.006
 11
61.8589
 21
734.139
  0
LINE
  8
0
 10
61.8589
 20
734.139
 11
61.8589
 21
750.476
  0
LINE
  8
0
 10
61.8589
 20
750.476
 11
82.1429
 21
785.609
  0
LINE
  8
0
 10
82.1429
 20
661.891
 11
132.143
 21
661.891
  0
LINE
  8
0
 10
132.143
 20
661.891
 11
157.143
 21
618.59
  0
LINE
  8
0
 10
157.143
 20
618.59
 11
132.143
 21
575.288
  0
LINE
  8
0
 10
132.143
 20
575.288
 11
82.1429
 21
575.288
  0
LINE
  8
0
 10
82.1429
 20
575.288
 11
61.8589
 21
610.421
  0
LINE
  8
0
 10
61.8589
 20
610.421
 11
61.8589
 21
626.758
  0
LINE
  8
0
 10
61.8589
 20
626.758
 11
82.1429
 21
661.891
  0
LINE
  8
0
 10
82.1429
 20
538.173
 11
132.143
 21
538.173
  0
LINE
  8
0
 10
132.143
 20
538.173
 11
157.143
 21
494.872
  0
LINE
  8
0
 10
157.143
 20
494.872
 11
132.143
 21
451.57
  0
LINE
  8
0
 10
132.143
 20
451.57
 11
82.1429
 21
451.57
  0
LINE
  8
0
 10
82.1429
 20
451.57
 11
61.8589
 21
486.703
  0
LINE
  8
0
 10
61.8589
 20
486.703
 11
61.8589
 21
503.04
  0
LINE
  8
0
 10
61.8589
 20
503.04
 11
82.1429
 21
538.173
  0
LINE
  8
0
 10
82.1429
 20
414.455
 11
132.143
 21
414.455
  0
LINE
  8
0
 10
132.143
 20
414.455
 11
157.143
 21
371.154
  0
LINE
  8
0
 10
157.143
 20
371.154
 11
132.143
 21
327.852
  0
LINE
  8
0
 10
132.143
 20
327.852
 11
82.1429
 21
327.852
  0
LINE
  8
0
 10
82.1429
 20
327.852
 11
61.8589
 21
362.985
  0
LINE
  8
0
 10
61.8589
 20
362.985
 11
61.8589
 21
379.322
  0
LINE
  8
0
 10
61.8589
 20
379.322
 11
82.1429
 21
414.455
  0
LINE
  8
0
 10
82.1429
 20
290.737
 11
132.143
 21
290.737
  0
LINE
  8
0
 10
132.143
 20
290.737
 11
157.143
 21
247.436
  0
LINE
  8
0
 10
157.143
 20
247.436
 11
132.143
 21
204.135
  0
LINE
  8
0
 10
132.143
 20
204.135
 11
82.1429
 21
204.135
  0
LINE
  8
0
 10
82.1429
 20
204.135
 11
61.8589
 21
239.267
  0
LINE
  8
0
 10
61.8589
 20
239.267
 11
61.8589
 21
255.604
  0
LINE
  8
0
 10
61.8589
 20
255.604
 11
82.1429
 21
290.737
  0
LINE
  8
0
 10
82.1429
 20
167.019
 11
132.143
 21
167.019
  0
LINE
  8
0
 10
132.143
 20
167.019
 11
157.143
 21
123.718
  0
LINE
  8
0
 10
157.143
 20
123.718
 11
132.143
 21
80.4166
  0
LINE
  8
0
 10
132.143
 20
80.4166
 11
82.1429
 21
80.4166
  0
LINE
  8
0
 10
82.1429
 20
80.4166
 11
61.8589
 21
115.549
  0
LINE
  8
0
 10
61.8589
 20
115.549
 11
61.8589
 21
131.886
  0
LINE
  8
0
 10
61.8589
 20
131.886
 11
82.1429
 21
167.019
  0
LINE
  8
0
 10
1260.71
 20
105.16
 11
1310.71
 21
105.16
  0
LINE
  8
0
 10
1310.71
 20
105.16
 11
1335.71
 21
61.8589
  0
LINE
  8
0
 10
1335.71
 20
61.8589
 11
1235.71
 21
61.8589
  0
LINE
  8
0
 10
1235.71
 20
61.8589
 11
1260.71
 21
105.16
  0
LINE
  8
0
 10
1046.43
 20
105.16
 11
1096.43
 21
105.16
  0
LINE
  8
0
 10
1096.43
 20
105.16
 11
1121.43
 21
61.8589
  0
LINE
  8
0
 10
1121.43
 20
61.8589
 11
1021.43
 21
61.8589
  0
LINE
  8
0
 10
1021.43
 20
61.8589
 11
1046.43
 21
105.16
  0
LINE
  8
0
 10
832.143
 20
105.16
 11
882.143
 21
105.16
  0
LINE
  8
0
 10
882.143
 20
105.16
 11
907.143
 21
61.8589
  0
LINE
  8
0
 10
907.143
 20
61.8589
 11
807.143
 21
61.8589
  0
LINE
  8
0
 10
807.143
 20
61.8589
 11
832.143
 21
105.16
  0
LINE
  8
0
 10
617.857
 20
105.16
 11
667.857
 21
105.16
  0
LINE
  8
0
 10
667.857
 20
105.16
 11
692.857
 21
61.8589
  0
LINE
  8
0
 10
692.857
 20
61.8589
 11
592.857
 21
61.8589
  0
LINE
  8
0
 10
592.857
 20
61.8589
 11
617.857
 21
105.16
  0
LINE
  8
0
 10
403.571
 20
105.16
 11
453.571
 21
105.16
  0
LINE
  8
0
 10
453.571
 20
105.16
 11
478.571
 21
61.8589
  0
LINE
  8
0
 10
478.571
 20
61.8589
 11
378.571
 21
61.8589
  0
LINE
  8
0
 10
378.571
 20
61.8589
 11
403.571
 21
105.16
  0
LINE
  8
0
 10
189.286
 20
105.16
 11
239.286
 21
105.16
  0
LINE
  8
0
 10
239.286
 20
105.16
 11
264.286
 21
61.8589
  0
LINE
  8
0
 10
264.286
 20
61.8589
 11
164.286
 21
61.8589
  0
LINE
  8
0
 10
164.286
 20
61.8589
 11
189.286
 21
105.16
  0
ENDSEC
  0
SECTION
  2
OBJECTS
  0
DICTIONARY
  0
ENDSEC
  0
EOF
